<?xml version="1.0" encoding="utf-8"?>
<!-- Generator: Adobe Illustrator 24.0.1, SVG Export Plug-In . SVG Version: 6.00 Build 0)  -->
<svg version="1.1" xmlns="http://www.w3.org/2000/svg" xmlns:xlink="http://www.w3.org/1999/xlink" x="0px" y="0px"
	 viewBox="0 0 100 100" style="enable-background:new 0 0 100 100;" xml:space="preserve">
<style type="text/css">
	.st0{fill:#383330;}
</style>
<g id="Background">
</g>
<g id="Graphic_Elements">
	<g>
		<path class="st0" d="M87.83,27.69c0-0.39-0.01-0.41-0.42-0.4c-0.99,0.01-1.97-0.11-2.94-0.26c-3.53-0.53-14.99-6.54-16.93-16.37
			c-0.04-0.19-0.47-2.63-0.47-3.67c0-0.46-0.01-0.47-0.46-0.47c-0.11,0-0.21,0-0.32,0c-4.48,0-8.97,0-13.45,0
			c-0.9,0-0.78-0.11-0.78,0.79c0,19.44,0,38.88,0,58.32c0,0.72-0.02,1.45-0.15,2.16c-0.68,3.76-2.6,6.71-5.86,8.72
			c-2.82,1.74-5.89,2.24-9.15,1.59c-1.03-0.2-1.99-0.59-2.95-0.97c-0.08-0.07-0.16-0.14-0.23-0.21c-0.32-0.27-0.68-0.5-1.03-0.74
			c-4.15-2.87-6.12-6.86-5.52-11.85c0.61-5.06,3.52-8.5,8.32-10.27c1.43-0.53,2.94-0.75,4.47-0.66c0.99,0.05,1.97,0.18,2.92,0.45
			c0.33,0.09,0.51-0.02,0.53-0.37c0.01-0.12,0.01-0.25,0.01-0.37c0-3.49-0.13-11.11-0.15-11.13c0.01-1,0.01-2.01,0.03-3.01
			c0.01-0.29-0.14-0.34-0.38-0.37c-1.81-0.21-3.62-0.26-5.44-0.12c-2.51,0.18-4.95,0.7-7.32,1.55c-3.78,1.36-7.09,3.46-9.95,6.26
			c-2.46,2.41-4.39,5.19-5.8,8.33c-1.36,3-2.13,6.15-2.35,9.43c-0.09,1.42-0.08,2.85,0.06,4.28c0.18,1.97,0.56,3.9,1.16,5.79
			c1.73,5.42,4.86,9.86,9.31,13.39c0.45,0.36,0.89,0.75,1.43,0.98c0,0,0,0,0,0c0.23,0.2,0.45,0.4,0.68,0.6
			c0.72,0.54,1.49,1.01,2.3,1.4c4.98,2.46,10.23,3.46,15.76,2.79c7.18-0.88,13.16-4.06,17.86-9.54c4.43-5.16,6.58-11.21,6.62-17.98
			c0.06-9.68,0.01-19.36,0.02-29.05c0-0.23-0.13-0.56,0.12-0.68c0.2-0.09,0.4,0.17,0.59,0.3c3.6,2.37,7.49,4.08,11.7,5.04
			c2.45,0.56,4.92,0.9,7.44,0.9c0.79,0,0.9-0.04,0.9-0.83C88.01,38.01,87.82,28.61,87.83,27.69z"/>
	</g>
</g>
</svg>
